<svg width="25" height="26" viewBox="0 0 25 26" fill="none" xmlns="http://www.w3.org/2000/svg">
<g id="Component 1" clip-path="url(#clip0_1758_203118)">
<path id="Vector" d="M22.2222 3.97223H2.77778C2.04107 3.97223 1.33453 4.26489 0.813592 4.78582C0.292658 5.30676 0 6.01329 0 6.75001L0 19.25C0 19.9867 0.292658 20.6933 0.813592 21.2142C1.33453 21.7351 2.04107 22.0278 2.77778 22.0278H22.2222C22.9589 22.0278 23.6655 21.7351 24.1864 21.2142C24.7073 20.6933 25 19.9867 25 19.25V6.75001C25 6.01329 24.7073 5.30676 24.1864 4.78582C23.6655 4.26489 22.9589 3.97223 22.2222 3.97223Z" fill="#006C35"/>
<g id="Group">
<path id="Vector_2" d="M6.19377 10.2569C6.63266 10.2986 6.3903 9.51457 6.54933 9.37221C6.57919 9.30207 6.63475 9.30138 6.63891 9.39027V10.0555C6.63475 10.2722 6.77711 10.3354 6.88752 10.3805C7.0028 10.3715 7.07919 10.3757 7.12433 10.4875L7.1785 11.6389C7.1785 11.6389 7.44516 11.7153 7.45766 10.991C7.47086 10.566 7.37294 10.2104 7.43058 10.1278C7.43266 10.0465 7.53614 10.0417 7.60836 10.0812C7.72294 10.1618 7.77433 10.2618 7.95211 10.2222C8.22364 10.1479 8.38614 10.016 8.3903 9.80763C8.37433 9.60971 8.35211 9.41179 8.26669 9.21388C8.2785 9.17777 8.21461 9.08471 8.22641 9.0486C8.27502 9.12499 8.34933 9.11874 8.366 9.0486C8.32016 8.89652 8.24864 8.75068 8.13197 8.68749C8.03614 8.60277 7.89586 8.62013 7.84447 8.79652C7.82086 8.99929 7.91808 9.24096 8.0653 9.43749C8.09655 9.51457 8.141 9.64235 8.12155 9.75763C8.04308 9.80207 7.96391 9.78402 7.89864 9.71457C7.89864 9.71457 7.68266 9.55277 7.68266 9.51665C7.7403 9.14999 7.69586 9.10832 7.66391 9.00693C7.64169 8.86665 7.57502 8.82152 7.52086 8.72568C7.46669 8.66874 7.39378 8.66874 7.35905 8.72568C7.26322 8.89096 7.30766 9.24652 7.37711 9.40554C7.42641 9.55138 7.5028 9.64374 7.46669 9.64374C7.43683 9.72638 7.37572 9.70693 7.33128 9.61179C7.26739 9.41457 7.25489 9.12082 7.25489 8.98818C7.23544 8.82429 7.21461 8.4736 7.10697 8.38471C7.041 8.29513 6.94308 8.33818 6.90905 8.42082C6.90211 8.58332 6.90072 8.74652 6.91947 8.89721C6.99308 9.1604 7.01669 9.39235 7.0528 9.66249C7.06252 10.0243 6.84378 9.81943 6.8535 9.64027C6.90419 9.40763 6.891 9.04096 6.84586 8.9479C6.81044 8.85554 6.76808 8.83193 6.68197 8.84721C6.61391 8.84165 6.43752 9.03471 6.38752 9.35415C6.38752 9.35415 6.34516 9.51874 6.32711 9.66527C6.3028 9.83054 6.19447 9.94721 6.11808 9.64235C6.05211 9.42082 6.01183 8.87429 5.90141 9.00207C5.86947 9.42915 5.83127 10.1805 6.19377 10.2569Z" fill="white"/>
<path id="Vector_3" d="M6.85424 10.5688C6.49313 10.5757 5.96466 11.0431 5.95007 11.3021C6.33063 11.1188 6.70493 10.9424 7.09243 10.7535C7.02993 10.6597 7.08896 10.5757 6.85424 10.5688Z" fill="white"/>
<path id="Vector_4" d="M8.8452 11.9694C9.01256 11.4118 8.81812 11.0007 8.90909 11.0028C9.10145 11.2104 9.37089 11.0306 9.42992 10.9583C9.45562 10.9222 9.51881 10.8986 9.56325 10.9458C9.71395 11.0542 9.97923 11.0028 10.0341 10.8125C10.0688 10.6214 10.0901 10.4281 10.098 10.234C9.97506 10.2722 9.88339 10.2979 9.87506 10.3486L9.84936 10.5139C9.83895 10.5674 9.7327 10.5694 9.72853 10.5014C9.682 10.2896 9.48895 10.2618 9.37228 10.5903C9.29381 10.6542 9.15214 10.6667 9.13686 10.5715C9.15561 10.3514 9.06673 10.3215 8.88895 10.425C8.832 9.9882 8.77437 9.57083 8.71742 9.13403C8.79173 9.13195 8.85978 9.18681 8.92714 9.10208C8.85284 8.87083 8.69589 8.39861 8.60909 8.36458C8.56673 8.3132 8.53062 8.34514 8.47575 8.35833C8.3827 8.3882 8.29589 8.46875 8.32298 8.625C8.43339 9.29514 8.50562 9.80556 8.61534 10.4757C8.632 10.5542 8.56673 10.6576 8.482 10.6472C8.33825 10.55 8.30214 10.3528 8.05631 10.3611C7.87784 10.3632 7.67437 10.5563 7.64937 10.7431C7.6195 10.891 7.60909 11.0521 7.64937 11.1819C7.77437 11.3319 7.92506 11.3174 8.05631 11.2833C8.16395 11.2389 8.25353 11.1306 8.29103 11.1563C8.31673 11.1875 8.29728 11.5438 7.7827 11.8174C7.47089 11.9569 7.22298 11.9889 7.08964 11.7347C7.007 11.5757 7.09589 10.9715 6.89242 11.1118C6.29034 12.6639 8.30214 12.8792 8.52714 11.1757C8.54867 11.1056 8.63339 11.0354 8.64798 11.15C8.60145 12.6931 7.09173 12.7993 6.83548 12.3139C6.77159 12.1993 6.75284 11.9451 6.74659 11.7924C6.70839 11.4889 6.54937 11.6056 6.52437 11.9063C6.49867 12.0736 6.50562 12.1208 6.50562 12.2813C6.58548 13.5 8.52992 12.9764 8.8452 11.9694ZM8.0952 10.9153C8.0827 10.9389 8.02784 10.9292 7.98756 10.9292C7.94173 10.9271 7.9202 10.9194 7.89242 10.8826C7.87992 10.841 7.91881 10.8014 7.93617 10.7701C7.9577 10.7333 8.07367 10.6951 8.11464 10.7979C8.12223 10.8174 8.12442 10.8386 8.121 10.8593C8.11758 10.8799 8.10867 10.8993 8.0952 10.9153Z" fill="white"/>
<path id="Vector_5" d="M9.44589 9.53402C9.56672 9.48957 10.1396 8.83471 10.1396 8.83471C10.1098 8.80902 10.0834 8.79027 10.0535 8.76458C10.0216 8.7368 10.0251 8.70902 10.0535 8.68194C10.1952 8.5993 10.1501 8.41805 10.0757 8.33541C10.0277 8.31183 9.97478 8.2998 9.92125 8.30029C9.86772 8.30077 9.81504 8.31375 9.76741 8.33819C9.66811 8.43332 9.6445 8.5861 9.72297 8.68194C9.79936 8.71805 9.87575 8.79513 9.82505 8.83749C9.59102 9.08749 8.94936 9.51874 9.02366 9.53402C9.03964 9.55485 9.43339 9.55416 9.44589 9.53402ZM9.87019 8.50555C9.907 8.49652 9.95422 8.52916 9.97644 8.57777C9.99866 8.62638 9.98686 8.67291 9.95075 8.68194H9.94936C9.91325 8.69096 9.86602 8.65833 9.8438 8.60971C9.82227 8.56041 9.83408 8.51457 9.87019 8.50555ZM6.15422 12.4847C6.05977 12.6771 6.02019 12.5451 6.01186 12.4375C6.001 12.2567 6.01009 12.0753 6.03894 11.8965C6.06255 11.7437 6.03894 11.7903 5.99033 11.8521C5.77575 12.1937 5.757 12.7049 5.87575 12.8569C5.93825 12.9292 6.04172 12.9611 6.1188 12.9375C6.25352 12.8792 6.31255 12.6055 6.28061 12.5062C6.23477 12.4361 6.19936 12.425 6.15422 12.4847ZM13.2244 8.86805C13.4716 9.19999 13.7063 9.53819 13.9362 9.88263C13.9813 10.1812 14.0139 10.4729 14.0334 10.7625C14.0716 11.3208 14.0827 11.925 14.048 12.5132C14.1521 12.5174 14.3209 12.3437 14.3792 12.0903C14.4174 11.7396 14.3653 11.1153 14.3619 10.9083C14.3573 10.7786 14.351 10.649 14.3431 10.5194C14.6167 10.9667 14.8834 11.4347 15.1438 11.9549C15.2389 11.9104 15.2181 11.3785 15.1626 11.3035C14.9542 10.8569 14.6674 10.4153 14.5757 10.2458C14.5417 10.1833 14.4257 10.0055 14.2876 9.80208C14.2757 9.63968 14.2562 9.47793 14.2292 9.31735C14.1862 9.02013 14.3521 9.34999 14.3292 9.17707C14.2757 8.87985 14.1105 8.67916 13.9174 8.40694C13.8549 8.31874 13.857 8.30069 13.7605 8.42846C13.7263 8.50501 13.7107 8.5885 13.7146 8.67221C13.6845 8.6279 13.6523 8.58503 13.6181 8.54374C13.5133 8.45331 13.408 8.3635 13.3021 8.2743C13.232 8.2243 13.0612 8.13402 13.0306 8.28402C13.0164 8.38916 13.0216 8.49602 13.0459 8.5993C13.0639 8.6736 13.1716 8.79721 13.2244 8.86805ZM13.7382 8.85138C13.7514 8.90902 13.7653 8.96666 13.7744 9.02569L13.7848 9.08194C13.7556 9.04123 13.7253 9.00139 13.6938 8.96249C13.5799 8.82777 13.6744 8.85694 13.7382 8.85138Z" fill="white"/>
<path id="Vector_6" d="M15.2216 12.0923C14.98 12.3444 14.6314 12.6548 14.2522 12.7986C14.2112 12.8444 14.3536 13.041 14.5369 13.041C14.8446 13.0048 15.1154 12.8319 15.3661 12.3771C15.4334 12.2715 15.5515 12.0444 15.5543 11.868C15.5772 10.8361 15.5029 10.0326 15.348 9.28679C15.3377 9.22695 15.3405 9.16556 15.3564 9.10693C15.3758 9.08332 15.4439 9.10693 15.48 9.0486C15.5321 8.99443 15.3404 8.54999 15.2307 8.37915C15.1918 8.30276 15.1786 8.25137 15.114 8.38818C15.0459 8.49929 15.0008 8.69304 15.0064 8.8736C15.1529 9.88957 15.198 10.7792 15.2939 11.7951C15.3015 11.893 15.2869 12.0361 15.2216 12.0923ZM19.2703 9.51596C19.2598 9.44374 19.2279 9.27568 19.2404 9.25415C19.2598 9.20276 19.3605 9.25971 19.3966 9.20068C19.4494 9.14721 19.1369 8.74582 19.0279 8.57499C18.9883 8.4986 18.9751 8.44721 18.9105 8.58401C18.8425 8.69512 18.8189 8.89443 18.8459 9.06943C19.0091 10.1729 19.1307 11.0021 19.1557 11.9805C19.1411 12.0736 19.1383 12.1236 19.0946 12.2403C18.998 12.3639 18.8918 12.518 18.7911 12.593C18.6911 12.6673 18.4779 12.7389 18.4078 12.7937C18.1876 12.9222 18.1869 13.0687 18.3661 13.0736C18.673 13.0375 19.0369 13.0125 19.2876 12.6333C19.355 12.5278 19.4348 12.241 19.4383 12.0646C19.4612 11.0326 19.4251 10.2618 19.2703 9.51596ZM16.9432 10.375C16.9459 10.2333 16.9591 10.0458 16.9668 9.92846C16.9703 9.88471 16.9807 9.8354 17.0223 9.82429C17.0647 9.81318 17.1397 9.86735 17.1404 9.82151C17.1321 9.73193 17.114 9.5986 17.0633 9.5354C16.9939 9.43262 16.8098 9.45762 16.7772 9.61874C16.7779 9.67846 16.805 9.7104 16.8001 9.76457C16.7918 9.79512 16.7598 9.81596 16.6841 9.77985C16.6966 9.76874 16.6348 9.68332 16.6348 9.68332C16.5758 9.64721 16.4966 9.6854 16.4459 9.71804C16.4276 9.75305 16.4167 9.79147 16.4138 9.83089C16.4109 9.87032 16.4162 9.90991 16.4293 9.94721C16.5126 10.1048 16.8036 10.3722 16.9432 10.375Z" fill="white"/>
<path id="Vector_7" d="M16.8452 9.16735C17.0487 9.41666 17.2563 9.66943 17.4653 9.92638C17.5105 10.5 17.5223 10.9694 17.5667 11.543C17.5605 11.7861 17.4855 11.9979 17.414 12.0285C17.414 12.0285 17.3063 12.091 17.2341 12.0222C17.1813 12.0007 16.9709 11.6715 16.9709 11.6715C16.8633 11.5729 16.7924 11.6007 16.716 11.6715C16.5049 11.875 16.4098 12.2569 16.2667 12.5194C16.2292 12.5785 16.1251 12.6285 16.0091 12.5153C15.7153 12.1132 15.8876 11.5417 15.8515 11.6889C15.5896 11.984 15.7049 12.4722 15.764 12.5778C15.8501 12.75 15.9202 12.8611 16.0883 12.9465C16.241 13.059 16.3605 12.9882 16.4258 12.9097C16.5799 12.7493 16.582 12.343 16.6542 12.2611C16.7042 12.1132 16.8327 12.1382 16.8945 12.2042C16.9511 12.284 17.0262 12.3491 17.1133 12.3937C17.257 12.5208 17.4285 12.5437 17.5973 12.4278C17.7126 12.3632 17.7883 12.2792 17.8556 12.1132C17.9306 11.9132 17.8896 10.9937 17.8744 10.4424C17.982 10.5812 18.0869 10.7264 18.1931 10.8715C18.2396 11.3319 18.266 11.7903 18.2508 12.2583C18.2396 12.3521 18.5771 11.9805 18.5744 11.8042C18.573 11.6618 18.5744 11.5326 18.5744 11.4111C18.7369 11.6555 18.8952 11.9076 19.0438 12.1743C19.1369 12.1257 19.1063 11.6014 19.0473 11.5292C18.8758 11.2417 18.6473 10.9424 18.4896 10.7285C18.4792 10.7014 18.4737 10.6708 18.4612 10.6451C18.398 10.4986 18.4376 10.3805 18.4077 10.225C18.3785 10.0687 18.3862 9.83541 18.341 9.64999C18.3285 9.57777 18.291 9.34582 18.3021 9.32429C18.3202 9.27221 18.3896 9.32568 18.4237 9.26596C18.4744 9.21041 18.248 8.6236 18.1327 8.45555C18.091 8.38055 18.016 8.40624 17.923 8.52846C17.8376 8.60902 17.8695 8.79235 17.9021 8.96666C17.9834 9.38888 18.0515 9.79374 18.1098 10.1944C17.9849 10.0284 17.8588 9.86336 17.7313 9.69929L17.7258 9.66874C17.7258 9.6611 17.707 9.30485 17.6903 9.22013C17.6876 9.1861 17.6792 9.17568 17.7153 9.17985C17.7535 9.21179 17.7584 9.21388 17.7827 9.22499C17.8216 9.23193 17.8556 9.16596 17.8327 9.10554L17.4737 8.44443C17.4452 8.41596 17.4077 8.38541 17.3626 8.45207C17.3345 8.47655 17.3121 8.50677 17.2968 8.54067C17.2814 8.57458 17.2735 8.61139 17.2737 8.6486C17.2848 8.80485 17.3119 8.96457 17.3223 9.12152L17.3376 9.20624C17.3216 9.18749 17.3021 9.16388 17.2938 9.15554C16.989 8.83471 17.4341 9.10346 17.2355 8.85554C17.0674 8.67082 17.0188 8.61318 16.8744 8.50207C16.8021 8.45554 16.7584 8.36666 16.7348 8.51804C16.7229 8.65079 16.7194 8.78416 16.7244 8.91735C16.7244 8.98124 16.789 9.09791 16.8452 9.16735ZM10.664 9.91666C10.839 9.98888 10.9508 9.65554 11.023 9.29027C11.0716 9.18749 11.1091 9.17638 11.1341 9.22916C11.1278 9.71527 11.1688 9.82291 11.2938 9.97082C11.5723 10.1861 11.8028 9.99791 11.8216 9.97985L12.0383 9.76318C12.0862 9.71249 12.1508 9.70902 12.2188 9.75416C12.2855 9.81388 12.2765 9.91804 12.4181 9.99027C12.5376 10.0382 12.7931 10.0014 12.8521 9.8986C12.932 9.76249 12.9515 9.71527 12.9876 9.66388C13.0445 9.58818 13.1417 9.62221 13.1417 9.64582C13.1327 9.68818 13.0758 9.73054 13.1146 9.80624C13.1827 9.85693 13.198 9.82429 13.2383 9.81318C13.3799 9.74513 13.4855 9.43818 13.4855 9.43818C13.4917 9.3236 13.4278 9.33332 13.3862 9.35693C13.332 9.38957 13.3285 9.40068 13.2744 9.43402C13.2049 9.44443 13.0709 9.49027 13.0049 9.38749C12.9369 9.26388 12.9355 9.09166 12.8841 8.96735C12.8841 8.95832 12.7938 8.77082 12.8778 8.75902C12.9202 8.76666 13.0098 8.79027 13.0244 8.71527C13.0681 8.64166 12.9292 8.43193 12.8348 8.32568C12.7521 8.23541 12.6376 8.22429 12.5271 8.31666C12.4494 8.38818 12.4605 8.46735 12.4452 8.54304C12.4326 8.59646 12.4326 8.65208 12.4453 8.70549C12.4579 8.7589 12.4829 8.80861 12.5181 8.85068C12.5952 9.00277 12.7362 9.1993 12.6896 9.4743C12.6896 9.4743 12.6077 9.60485 12.464 9.58818C12.4042 9.57499 12.307 9.54929 12.2556 9.16735C12.2167 8.87777 12.2653 8.47291 12.1424 8.28332C12.098 8.16874 12.066 8.05832 11.9577 8.25416C11.9285 8.33124 11.8035 8.44791 11.8945 8.68888C11.9688 8.84096 11.9987 9.08888 11.9653 9.36527C11.914 9.44374 11.9028 9.47013 11.8355 9.5486C11.741 9.64999 11.639 9.62429 11.5605 9.5861C11.4869 9.53679 11.4299 9.5111 11.3966 9.35416C11.4028 9.10416 11.4167 8.69443 11.3709 8.60763C11.3035 8.47291 11.1924 8.52152 11.1445 8.56249C10.916 8.77152 10.8035 9.1236 10.7348 9.40346C10.6716 9.60763 10.6042 9.54929 10.557 9.46666C10.4417 9.35832 10.4341 8.51318 10.2945 8.65277C10.0702 9.28749 10.4209 9.98471 10.664 9.91666Z" fill="white"/>
<path id="Vector_8" d="M13.984 11.2806L13.9174 11.2424L12.6111 11.2361C12.5438 11.2104 12.5639 11.1882 12.6111 11.1701C12.9229 11.1278 13.4778 11.0375 13.5146 10.5049C13.5083 10.2278 13.3951 10.0458 13.0549 9.99584C12.8056 10.0153 12.6271 10.2576 12.6556 10.5236C12.6438 10.5958 12.6792 10.7361 12.6063 10.7521C12.1264 10.7958 11.6035 11.0958 11.5861 11.3111C11.557 11.3313 11.4917 11.2729 11.5 11.1813C11.4769 10.7891 11.364 10.4076 11.1701 10.066C11.0188 9.91459 11.066 9.96459 10.9646 10.0361C10.8993 10.1111 10.8875 10.1625 10.891 10.3118C10.891 10.3174 11.0132 10.6583 11.1167 10.8972C11.1854 11.1424 11.25 11.4222 11.2035 11.6868C11.0424 12.0368 10.7181 12.3507 10.4056 12.5208C10.2445 12.5729 10.1063 12.5542 10.0722 12.5181C9.97292 12.4514 9.97779 12.3285 9.98542 12.3264C10.2486 12.1424 10.55 11.9944 10.7861 11.4993C10.8556 11.3104 10.8764 11.1958 10.8076 10.9035C10.7885 10.8004 10.7412 10.7048 10.6708 10.6271C10.7132 10.5993 10.8347 10.6917 10.8535 10.6368C10.8183 10.4768 10.7386 10.3299 10.6236 10.2132C10.5299 10.1278 10.4278 10.1181 10.3417 10.1965C10.2445 10.2507 10.2236 10.4438 10.2701 10.6132C10.3215 10.741 10.4611 10.7625 10.5611 11.0188C10.5611 11.0243 10.5972 11.2104 10.5458 11.2833C10.5049 11.4111 9.97362 11.8285 9.94445 11.8472C9.92987 11.8653 9.93612 11.8382 9.93404 11.7688C9.93056 11.684 9.96806 11.484 9.95765 11.4826C9.78473 11.5944 9.72709 11.9368 9.69584 12.0382C9.25834 12.3403 8.7632 12.5653 8.47709 12.8722C8.32779 13.1049 9.50348 12.6049 9.64029 12.5444C9.67084 12.5667 9.66737 12.6715 9.74931 12.7653C9.87154 12.9306 10.1299 13.0326 10.3833 12.9694C10.807 12.816 11.0521 12.5271 11.3007 12.2069C11.3361 12.1549 11.3917 12.1153 11.4431 12.1549C11.6139 12.5375 12.1076 12.8083 12.7445 12.8368C12.8924 12.6569 12.8208 12.5701 12.7611 12.5326C12.7611 12.5271 12.4465 12.4076 12.3986 12.2882C12.3695 12.1799 12.4403 12.0847 12.582 12.0125C12.991 11.9632 13.3931 11.9083 13.7826 11.7833C13.7868 11.6528 13.8625 11.4569 13.9146 11.3722C13.9646 11.2861 13.9917 11.3118 13.984 11.2806ZM12.9097 10.4667C12.9292 10.434 12.9938 10.4354 13.0542 10.4708C13.1146 10.5056 13.1486 10.5611 13.1285 10.5938C13.109 10.6271 13.0438 10.625 12.9833 10.5896C12.9229 10.5549 12.8903 10.5 12.9097 10.4667ZM12.384 11.7861C12.2438 11.834 12.109 11.8715 12.109 12.0743C12.1611 12.3563 12.0375 12.2597 11.9646 12.2208C11.8785 12.159 11.6361 12.0097 11.6014 11.6875C11.5958 11.6104 11.6563 11.5458 11.7528 11.5458C11.8979 11.5854 12.1125 11.5882 12.2986 11.6076C12.4507 11.6174 12.5264 11.7368 12.384 11.7861ZM7.54584 8.65764C7.69584 8.72987 7.97917 8.69931 7.96667 8.45625C7.96667 8.43473 7.96112 8.3625 7.95904 8.34306C7.92848 8.27153 7.84515 8.28889 7.8257 8.3632C7.81945 8.3875 7.83612 8.42639 7.81459 8.43889C7.80209 8.45139 7.75417 8.44376 7.75626 8.37709C7.75626 8.35556 7.74029 8.33264 7.73126 8.31945C7.72154 8.3132 7.71598 8.31112 7.69862 8.31112C7.67779 8.31181 7.67779 8.31737 7.66667 8.33542C7.66181 8.35278 7.65487 8.37084 7.65487 8.39098C7.65209 8.41459 7.64306 8.42292 7.6257 8.42709C7.60626 8.42709 7.61042 8.42917 7.59515 8.41875C7.58542 8.40834 7.57362 8.40417 7.57362 8.38681C7.57356 8.36651 7.57028 8.34636 7.5639 8.32709C7.55556 8.31598 7.54237 8.31112 7.52709 8.30695C7.44515 8.30695 7.43959 8.4007 7.44445 8.43681C7.43681 8.44306 7.43404 8.61112 7.54584 8.65764Z" fill="white"/>
<path id="Vector_9" d="M12.1612 10.241C12.1612 10.2194 12.1452 10.1972 12.1362 10.1833C12.1264 10.1771 12.1209 10.175 12.1035 10.175C12.0827 10.1757 12.0834 10.1812 12.0716 10.1993C12.0667 10.2174 12.0598 10.2347 12.0598 10.2549C12.0577 10.2792 12.048 10.2875 12.0306 10.291C12.0112 10.291 12.0153 10.2931 11.9994 10.2833C11.9896 10.2729 11.9778 10.2687 11.9778 10.2514C11.9778 10.2311 11.9746 10.2109 11.9681 10.1917C11.9598 10.1806 11.9466 10.1757 11.9313 10.1722C11.8494 10.1722 11.8438 10.266 11.848 10.3014C11.8417 10.3083 11.8383 10.4757 11.9501 10.5229C12.1008 10.5944 12.4584 10.5528 12.3709 10.3215C12.3694 10.2835 12.3669 10.2455 12.3633 10.2076C12.3327 10.1361 12.2487 10.1542 12.2299 10.2278C12.2244 10.2521 12.241 10.291 12.2188 10.3035C12.2077 10.316 12.1591 10.3083 12.1612 10.241ZM14.5202 9.74999C14.6702 9.82222 14.9528 9.79166 14.9403 9.5493C14.9389 9.51127 14.9363 9.47329 14.9327 9.43541C14.9021 9.36388 14.8188 9.38194 14.8001 9.45555C14.7938 9.47986 14.8105 9.51874 14.7883 9.53124C14.7758 9.54374 14.7278 9.5368 14.7299 9.46944C14.7299 9.44791 14.7139 9.42499 14.7049 9.4118C14.6952 9.40555 14.6896 9.40347 14.6716 9.40347C14.6508 9.40486 14.6514 9.40972 14.6396 9.42777C14.6348 9.44583 14.6278 9.46319 14.6278 9.48333C14.6251 9.50763 14.616 9.51597 14.5987 9.51944C14.5792 9.51944 14.5834 9.52152 14.5674 9.5118C14.5577 9.50138 14.5466 9.49722 14.5466 9.47986C14.5465 9.45933 14.5432 9.43895 14.5369 9.41944C14.5278 9.40833 14.5153 9.40347 14.4994 9.39999C14.4174 9.39999 14.4119 9.49374 14.4167 9.52916C14.4119 9.53611 14.4084 9.70347 14.5202 9.74999ZM14.6216 8.81111C14.6751 8.96111 14.5806 9.10416 14.6369 9.12499C14.6876 9.14861 14.7598 8.97013 14.7862 8.80555C14.8174 8.67222 14.7223 8.3993 14.5876 8.34305C14.5056 8.32361 14.3889 8.37222 14.4264 8.48194C14.4077 8.53472 14.5917 8.71388 14.6216 8.81111ZM16.007 12.3278C16.1119 12.3285 16.2327 12.0882 16.2841 11.85C16.3126 11.5222 16.2646 11.3229 16.2563 11.1299C16.2473 10.9375 16.0389 9.46874 15.9959 9.32291C15.9452 9.04722 16.1994 9.28611 16.1716 9.12569C16.0834 8.92361 15.8646 8.62986 15.7952 8.45416C15.7535 8.37916 15.7716 8.31249 15.6785 8.43472C15.5931 8.71597 15.5633 8.94513 15.5959 9.12013C15.8167 10.2729 16.0431 11.2312 16.007 12.3278ZM18.6153 9.31388C18.6396 9.38888 18.5785 9.63124 18.6292 9.65347C18.6758 9.67847 18.741 9.48611 18.7653 9.30763C18.7785 9.20972 18.707 8.86805 18.5841 8.80694C18.5091 8.78611 18.4028 8.83819 18.4376 8.95763C18.4202 9.01527 18.5883 9.20833 18.6153 9.31388ZM9.50492 11.8528C9.55006 11.8715 9.61186 11.7299 9.63547 11.5986C9.64867 11.5264 9.57922 11.2757 9.46186 11.2305C9.38964 11.2153 9.29103 11.2347 9.32159 11.3417C9.31811 11.3993 9.48131 11.4687 9.49103 11.6028C9.51464 11.6583 9.45631 11.8368 9.50492 11.8528ZM6.34103 8.64791C6.36395 8.70555 6.31811 8.88958 6.36603 8.90694C6.40978 8.92638 6.47159 8.77916 6.4945 8.64374C6.5077 8.56874 6.49728 8.31458 6.32367 8.26249C6.25214 8.24652 6.15284 8.28611 6.18547 8.37708C6.16881 8.42013 6.31534 8.56736 6.34103 8.64791ZM9.7452 9.46249C9.61256 9.53472 9.56047 9.74861 9.64381 9.87291C9.72089 9.98333 9.84311 9.94236 9.85978 9.94236C9.99034 9.95833 10.0674 9.69791 10.0674 9.69791C10.0674 9.69791 10.0716 9.62499 9.91672 9.76319C9.85145 9.77569 9.84311 9.75138 9.82714 9.71388C9.81133 9.64592 9.81841 9.57463 9.84728 9.51111C9.8695 9.44652 9.8195 9.41805 9.7452 9.46249ZM10.7466 8.6618C10.768 8.64857 10.7864 8.63097 10.8005 8.61015C10.8146 8.58932 10.8242 8.56575 10.8285 8.54097C10.8487 8.43958 10.7209 8.58888 10.7049 8.47569C10.6764 8.37083 10.7584 8.32777 10.8362 8.22638C10.8389 8.15624 10.8376 8.10694 10.7424 8.16388C10.6758 8.20902 10.5424 8.34652 10.5383 8.50486C10.5341 8.59444 10.5174 8.59374 10.5764 8.65069C10.6188 8.71249 10.6612 8.70624 10.7466 8.6618ZM11.6487 8.71597C11.7348 8.48263 11.7348 8.38402 11.741 8.28472C11.7146 8.13402 11.6126 8.13888 11.5452 8.30624C11.516 8.36944 11.482 8.70208 11.4876 8.70208C11.4646 8.80138 11.591 8.84374 11.6487 8.71597ZM17.3223 10.3708C17.3223 10.3708 16.6258 10.866 16.6091 10.8833C16.5396 10.9444 16.5744 11.1611 16.6091 11.1361C16.6584 11.1556 17.3591 10.6799 17.3452 10.6243C17.3778 10.6257 17.3938 10.3458 17.3223 10.3708ZM17.2369 11.7139C17.2834 11.7389 17.4063 11.5868 17.4014 11.3972C17.4153 11.2993 17.366 10.9403 17.2438 10.8792C17.1688 10.8583 17.0688 10.9222 17.1035 11.041C17.0862 11.0979 17.1896 11.2972 17.2167 11.4028C17.241 11.4785 17.1862 11.6917 17.2369 11.7139ZM13.2924 12.7528C13.2924 12.759 13.3514 12.8097 13.4209 12.7694C13.5667 12.7132 13.6584 12.659 13.8626 12.6139C13.916 12.6132 13.9126 12.4694 13.8278 12.4646C13.7174 12.4701 13.6146 12.4757 13.5042 12.5632C13.4362 12.5785 13.4251 12.5375 13.4098 12.5C13.3931 12.4076 13.448 12.3437 13.4362 12.275C13.4403 12.2792 13.373 12.2174 13.3042 12.2521C13.3008 12.2521 13.1508 12.3535 13.1028 12.4243C13.073 12.4472 13.0764 12.4667 13.0855 12.5049C13.1084 12.5576 13.1494 12.5417 13.1952 12.5167C13.2563 12.5083 13.2855 12.5486 13.2806 12.6215C13.2514 12.7139 13.2924 12.7479 13.2924 12.7528ZM17.8417 12.868C17.8188 12.9076 17.8035 12.9674 17.8744 12.9861C18.0049 13.0229 18.3056 12.8271 18.3056 12.8236C18.3542 12.7868 18.3383 12.7181 18.3341 12.7181C18.3056 12.6854 18.2417 12.7042 18.1987 12.6993C18.1785 12.6993 18.1105 12.6889 18.1431 12.6292C18.1661 12.597 18.1843 12.5617 18.1973 12.5243C18.2174 12.4792 18.2001 12.4493 18.1264 12.425C18.0521 12.4111 18.0223 12.4181 17.9396 12.425C17.8952 12.4347 17.8799 12.4542 17.8716 12.5083C17.8751 12.5903 17.9244 12.5861 17.9758 12.6187C18.0056 12.6569 18.0251 12.6917 17.9737 12.7535C17.9251 12.7986 17.891 12.8236 17.8417 12.868ZM17.7084 16.4722H16.6667V16.125C16.6667 16.0329 16.6301 15.9446 16.565 15.8795C16.4999 15.8144 16.4116 15.7778 16.3195 15.7778C16.2274 15.7778 16.1391 15.8144 16.074 15.8795C16.0089 15.9446 15.9723 16.0329 15.9723 16.125V16.4722H7.63895C7.63895 16.4722 7.63895 17.1667 9.72228 17.1667H15.9723V17.5139C15.9723 17.606 16.0089 17.6943 16.074 17.7594C16.1391 17.8245 16.2274 17.8611 16.3195 17.8611C16.4116 17.8611 16.4999 17.8245 16.565 17.7594C16.6301 17.6943 16.6667 17.606 16.6667 17.5139V17.1667H17.3612V17.5139C17.3612 17.606 17.3978 17.6943 17.4629 17.7594C17.528 17.8245 17.6163 17.8611 17.7084 17.8611C17.8005 17.8611 17.8888 17.8245 17.9539 17.7594C18.019 17.6943 18.0556 17.606 18.0556 17.5139V16.8194C18.0556 16.7273 18.019 16.639 17.9539 16.5739C17.8888 16.5088 17.8005 16.4722 17.7084 16.4722Z" fill="white"/>
</g>
</g>
<defs>
<clipPath id="clip0_1758_203118">
<rect width="25" height="25" fill="white" transform="translate(0 0.5)"/>
</clipPath>
</defs>
</svg>
