<svg width="22" height="22" viewBox="0 0 22 22" fill="none" xmlns="http://www.w3.org/2000/svg">
<g id="UK">
<g id="UK_2">
<g clip-path="url(#clip0_1758_203110)">
<g id="Mask group">
<mask id="mask0_1758_203110" style="mask-type:luminance" maskUnits="userSpaceOnUse" x="0" y="3" width="22" height="16">
<g id="Group">
<path id="Vector" d="M0 3.66666H22V18.3333H0V3.66666Z" fill="white"/>
</g>
</mask>
<g mask="url(#mask0_1758_203110)">
<g id="Group_2">
<path id="Vector_2" fill-rule="evenodd" clip-rule="evenodd" d="M0 3.66666V18.3333H22V3.66666H0Z" fill="#2E42A5"/>
<g id="Mask group_2">
<mask id="mask1_1758_203110" style="mask-type:luminance" maskUnits="userSpaceOnUse" x="0" y="3" width="22" height="16">
<g id="Group_3">
<path id="Vector_3" fill-rule="evenodd" clip-rule="evenodd" d="M0 3.66666V18.3333H22V3.66666H0Z" fill="white"/>
</g>
</mask>
<g mask="url(#mask1_1758_203110)">
<g id="Group_4">
<g id="Mask group_3">
<mask id="mask2_1758_203110" style="mask-type:luminance" maskUnits="userSpaceOnUse" x="0" y="3" width="22" height="16">
<g id="Group_5">
<path id="Vector_4" d="M0 3.66666H22V18.3333H0V3.66666Z" fill="white"/>
</g>
</mask>
<g mask="url(#mask2_1758_203110)">
<g id="Group_6">
<path id="Vector_5" d="M-2.44946 17.2853L2.39191 19.1058L22.1094 5.64544L24.6635 2.94067L19.4866 2.33261L11.4442 8.13267L4.97072 12.0413L-2.44946 17.2853Z" fill="white"/>
<path id="Vector_6" d="M-1.78735 18.5607L0.680084 19.6167L23.7464 2.68951H20.2835L-1.78667 18.5601L-1.78735 18.5607Z" fill="#F50100"/>
<path id="Vector_7" d="M24.4496 17.2853L19.6082 19.1058L-0.109267 5.64544L-2.66333 2.94067L2.51355 2.33261L10.5559 8.13267L17.0294 12.0413L24.4496 17.2853Z" fill="white"/>
<path id="Vector_8" d="M24.2846 18.2007L21.8179 19.2567L11.9963 12.0089L9.08401 11.1998L-2.90942 2.94983H0.554201L12.5401 11.0043L15.7239 11.9747L24.2846 18.2007Z" fill="#F50100"/>
<path id="Vector_9" fill-rule="evenodd" clip-rule="evenodd" d="M13.5974 2.44446H8.40266V8.55557H-1.35571V13.4445H8.40266V19.5556H13.5974V13.4445H23.3943V8.55557H13.5974V2.44446Z" fill="#F50100"/>
<g id="Mask group_4">
<mask id="mask3_1758_203110" style="mask-type:luminance" maskUnits="userSpaceOnUse" x="-2" y="2" width="26" height="18">
<g id="Group_7">
<path id="Vector_10" fill-rule="evenodd" clip-rule="evenodd" d="M13.5974 2.44446H8.40266V8.55557H-1.35571V13.4445H8.40266V19.5556H13.5974V13.4445H23.3943V8.55557H13.5974V2.44446Z" fill="white"/>
</g>
</mask>
<g mask="url(#mask3_1758_203110)">
<path id="Vector_11" d="M8.40266 2.44445V1.22223H7.02766V2.44445H8.40266ZM13.5974 2.44445H14.9724V1.22223H13.5974V2.44445ZM8.40266 8.55556V9.77779H9.77766V8.55556H8.40266ZM-1.35571 8.55556V7.33334H-2.73071V8.55556H-1.35571ZM-1.35571 13.4445H-2.73071V14.6667H-1.35571V13.4445ZM8.40266 13.4445H9.77766V12.2222H8.40266V13.4445ZM8.40266 19.5556H7.02766V20.7778H8.40266V19.5556ZM13.5974 19.5556V20.7778H14.9724V19.5556H13.5974ZM13.5974 13.4445V12.2222H12.2224V13.4445H13.5974ZM23.3943 13.4445V14.6667H24.7693V13.4445H23.3943ZM23.3943 8.55556H24.7693V7.33334H23.3943V8.55556ZM13.5974 8.55556H12.2224V9.77779H13.5974V8.55556ZM8.40266 3.66667H13.5974V1.22223H8.40266V3.66667ZM9.77766 8.55556V2.44445H7.02766V8.55556H9.77766ZM-1.35571 9.77779H8.40266V7.33334H-1.35571V9.77779ZM0.0192871 13.4445V8.55556H-2.73071V13.4445H0.0192871ZM8.40266 12.2222H-1.35571V14.6667H8.40266V12.2222ZM9.77766 19.5556V13.4445H7.02766V19.5556H9.77766ZM13.5974 18.3333H8.40266V20.7778H13.5974V18.3333ZM12.2224 13.4445V19.5556H14.9724V13.4445H12.2224ZM23.3943 12.2222H13.5974V14.6667H23.3943V12.2222ZM22.0193 8.55556V13.4445H24.7693V8.55556H22.0193ZM13.5974 9.77779H23.3943V7.33334H13.5974V9.77779ZM12.2224 2.44445V8.55556H14.9724V2.44445H12.2224Z" fill="white"/>
</g>
</g>
</g>
</g>
</g>
</g>
</g>
</g>
</g>
</g>
</g>
</g>
</g>
</g>
<defs>
<clipPath id="clip0_1758_203110">
<rect y="3.66666" width="22" height="14.6667" rx="2" fill="white"/>
</clipPath>
</defs>
</svg>
